<svg width="72" height="72" viewBox="0 0 72 72" fill="none" xmlns="http://www.w3.org/2000/svg">
<rect width="72" height="72" rx="36" fill="#1D201E"/>
<path d="M46.0114 28.9921C46.0114 26.2269 44.8901 23.7241 43.08 21.914C41.268 20.102 38.7651 18.9807 36 18.9807C33.2348 18.9807 30.732 20.102 28.9199 21.914C27.1099 23.7241 25.9886 26.2269 25.9886 28.9921C25.9886 31.7572 27.1099 34.2601 28.9199 36.0701C30.732 37.8822 33.2348 39.0035 36 39.0035C38.7651 39.0035 41.268 37.8822 43.08 36.0701C44.0112 35.1419 44.7495 34.0386 45.2526 32.8239C45.7557 31.6091 46.0135 30.3069 46.0114 28.9921ZM23.9863 49.0148C23.9863 51.0171 28.4914 53.0194 36 53.0194C43.044 53.0194 48.0136 51.0171 48.0136 49.0148C48.0136 45.0103 43.3003 41.0057 36 41.0057C28.4914 41.0057 23.9863 45.0103 23.9863 49.0148Z" fill="#D9D9D9"/>
</svg>
