<svg width="114" height="114" viewBox="0 0 114 114" fill="none" xmlns="http://www.w3.org/2000/svg">
<rect x="1" y="1" width="112" height="112" rx="42" fill="url(#paint0_linear_686_15434)"/>
<rect x="0.5" y="0.5" width="113" height="113" rx="42.5" stroke="white" stroke-opacity="0.32"/>
<path d="M62.9017 29.9675C62.7934 29.7905 63.9058 30.6744 64.4072 31.1707C68.9392 35.6626 71.2052 37.9092 72.7131 39.457C73.9149 40.691 74.766 41.5628 76.0008 42.727C78.8648 45.4257 80.9813 47.4188 83.5545 48.9344C85.7604 50.2328 88.6515 51.9362 92.456 51.7497C97.5895 51.4976 102.398 47.903 104.314 45.0045C104.578 44.6048 105.958 43.0395 105.761 43.2273C105.557 43.4231 105.485 44.6155 105.41 44.9294C103.808 51.8262 99.6577 58.4319 93.5248 60.7094C90.5325 61.82 86.9835 61.9299 84.1325 60.2601C82.3479 59.2152 80.78 57.709 79.338 56.1357C75.8019 52.2809 72.8355 47.7434 70.0739 43.1589C67.8762 39.5093 65.8115 35.7538 63.8716 31.9204C63.5491 31.2833 63.2725 30.5711 62.9028 29.9675H62.9017Z" fill="white"/>
<path d="M23.2309 51.2709C25.883 51.1488 28.5739 51.8195 30.9941 53.3887C35.9581 56.6078 39.2117 62.6421 42.324 67.8972C43.0821 69.1768 43.8178 70.4738 44.5335 71.7842C44.9184 72.4897 45.2975 73.1993 45.6706 73.9128C45.8625 74.279 46.052 74.6465 46.2404 75.014C46.3875 75.301 46.5511 75.8536 46.7724 76.0642C46.7724 76.0642 41.6401 70.679 35.5426 65.7458C34.5938 64.9786 32.3466 63.1894 29.2637 61.2057C25.5275 58.8008 21.2498 57.0719 16.9521 58.4078C15.0286 59.006 13.2064 60.1259 11.5337 61.3425C11.3018 61.5115 8.85456 63.1357 8.91694 63.4764C8.91694 63.4764 10.1388 60.7992 10.6673 59.7611C13.3124 54.5771 18.2022 51.5016 23.2309 51.2722V51.2709Z" fill="white"/>
<path d="M96.1521 76.3768C91.0916 83.7618 85.6285 90.6063 76.9883 91.8067C74.1632 92.1997 71.5017 92.0025 68.7578 91.1522C68.2422 90.9912 67.563 90.8249 67.1075 90.5204C66.5872 90.3407 66.0975 90.0765 65.6019 89.8257C65.1593 89.5936 64.7226 89.3468 64.2918 89.0866C63.8609 88.8264 63.4372 88.5528 63.0193 88.2658C62.6026 87.9787 62.1929 87.6783 61.7904 87.3644C61.3878 87.0519 60.9934 86.7246 60.6073 86.3866C59.2101 85.3539 57.7092 83.6129 56.558 82.2354C53.3939 78.4477 50.7524 74.0912 48.278 69.7013C44.7066 63.3665 41.2811 56.5636 36.2383 51.562C32.6327 47.9848 27.9901 45.5705 23.1332 45.9635C18.7166 46.3203 14.5519 48.8177 11.3219 52.1964C10.1271 53.4478 9.06295 54.8347 8 56.2269C8.40611 55.005 9.04765 53.8019 9.59973 52.6591C11.9752 47.7394 14.3495 44.0173 18.2917 40.5797C22.5459 36.8697 27.75 35.008 33.1048 35.849C34.8728 36.1253 36.5255 36.7222 38.1688 37.4988C46.4605 41.4139 51.1396 50.2998 55.7375 58.554C57.9458 62.5201 60.2106 66.5305 62.7026 70.2713C63.7055 71.5884 64.6885 72.9123 65.8244 74.0859C66.553 74.841 67.377 75.4929 68.088 76.2587C68.9732 76.9227 69.7996 77.6429 70.7236 78.2478C75.71 81.5111 81.3814 82.9785 87.0693 81.6426C89.7661 81.0082 92.204 79.7541 94.4347 77.9192C95.0256 77.4337 95.5541 76.8449 96.1521 76.3768Z" fill="white"/>
<path d="M39.0634 21.0521C41.1976 20.8321 43.7873 21.3391 45.8308 22.0044C54.5169 24.8345 58.8075 32.0612 63.6302 40.1705C65.9398 44.1138 68.2929 48.0223 70.6883 51.8986C73.1815 55.8754 75.5134 59.3694 78.9883 62.3095C79.8594 63.0472 80.7646 63.7674 81.7287 64.3388C84.9034 66.2193 88.8621 66.9758 92.3935 66.3722C92.6607 66.3239 92.9268 66.2689 93.1916 66.2085C93.4565 66.1482 93.7213 66.0811 93.9838 66.0087C94.2463 65.9363 94.5088 65.8571 94.769 65.7726C95.0291 65.6881 95.2881 65.5983 95.5447 65.5017C95.8013 65.4051 96.0568 65.3032 96.3099 65.1959C96.5629 65.0886 96.8149 64.9746 97.0644 64.8552C97.314 64.7358 97.5612 64.6111 97.806 64.481C98.0508 64.3509 98.2945 64.2154 98.5346 64.0733C98.7748 63.9311 99.0126 63.7849 99.248 63.6333C99.4834 63.4817 99.7153 63.3235 99.946 63.1612C100.176 62.9989 100.403 62.8312 100.626 62.6582C100.85 62.4852 101.071 62.3081 101.289 62.1244C101.507 61.942 101.721 61.7542 101.933 61.5611C102.144 61.3693 102.352 61.1707 102.557 60.9696C102.762 60.767 102.962 60.5618 103.16 60.3499C103.357 60.1393 103.55 59.9234 103.74 59.7034C104.576 58.7229 105.294 57.6486 106.002 56.5487C105.75 57.4487 105.308 58.3058 104.905 59.1293C101.203 66.6968 96.5194 73.843 88.8551 76.3365C86.057 77.1734 83.2154 77.502 80.342 76.9964C74.6212 75.9891 69.4865 72.0806 65.8903 66.9986C64.2777 64.7197 62.9346 62.1982 61.5385 59.7463C59.0347 55.351 56.6404 50.8336 53.9248 46.6046C49.175 39.2088 42.7808 32.2624 34.5209 30.8098C29.5404 29.934 25.072 31.066 20.8308 34.1375C20.0492 34.7035 19.3264 35.3406 18.5813 35.963C19.769 34.2381 20.9038 32.469 22.1963 30.8407C26.7106 25.1537 32.2243 21.4437 39.0634 21.0521Z" fill="white"/>
<defs>
<linearGradient id="paint0_linear_686_15434" x1="29.5" y1="91" x2="98" y2="13.5" gradientUnits="userSpaceOnUse">
<stop stop-color="#BEA6F5"/>
<stop offset="1" stop-color="#1625E4"/>
</linearGradient>
</defs>
</svg>
