<svg width="110" height="110" viewBox="0 0 110 110" fill="none" xmlns="http://www.w3.org/2000/svg">
<g filter="url(#filter0_d_677_4653)">
<g clip-path="url(#clip0_677_4653)">
<rect x="19" y="10" width="72" height="72" rx="20" fill="black"/>
<path d="M81.9227 37.3914C81.943 37.3674 81.9629 37.3438 81.9823 37.3208C81.9776 37.3496 81.9731 37.3787 81.9689 37.4078C81.9575 37.486 81.9474 37.5655 81.9383 37.6377C81.9357 37.6578 81.9333 37.6772 81.9309 37.6959C81.9196 37.7842 81.91 37.8527 81.901 37.891L81.9009 37.8913C81.0308 41.6501 78.7798 45.2335 75.4712 46.4664C73.8551 47.0682 71.9461 47.1247 70.4175 46.2263L70.3793 46.2911L70.4174 46.2263C69.4549 45.6608 68.6065 44.8438 67.8223 43.9852L67.8222 43.9852C65.9006 41.8831 64.2872 39.4072 62.783 36.9014C61.5864 34.9075 60.4622 32.8556 59.4059 30.761L59.4059 30.761C59.3432 30.6369 59.2841 30.508 59.224 30.3771C59.2004 30.3258 59.1767 30.2741 59.1526 30.2223C59.1112 30.1334 59.0687 30.0444 59.0242 29.957C59.0323 29.9635 59.0405 29.97 59.0488 29.9766C59.2262 30.1185 59.4437 30.3053 59.5776 30.4383C62.0474 32.8947 63.2816 34.1226 64.1027 34.9683C64.7576 35.6431 65.2224 36.1208 65.8965 36.7586L65.8965 36.7586C67.4557 38.2329 68.6153 39.3291 70.0261 40.163L70.0261 40.163L70.0331 40.1671C71.2334 40.876 72.8246 41.8158 74.9187 41.7128C76.3333 41.643 77.7 41.1116 78.8432 40.4C79.9859 39.6886 80.9107 38.7938 81.4398 37.9907L81.4398 37.9906C81.5085 37.8861 81.7284 37.622 81.9227 37.3914Z" fill="white" stroke="url(#paint0_linear_677_4653)" stroke-width="0.15043"/>
<path d="M60.5478 65.1226L60.5559 65.128C60.6719 65.2058 60.8192 65.2677 60.9758 65.3215C61.0779 65.3566 61.1798 65.387 61.2782 65.4164C61.332 65.4325 61.3848 65.4482 61.4358 65.4642M60.5478 65.1226L54.3182 47.7111M60.5478 65.1226L60.5386 65.1195C60.3005 65.0369 60.0744 64.9211 59.8426 64.8023C59.8046 64.7828 59.7665 64.7633 59.7282 64.7438C59.4886 64.6177 59.252 64.4836 59.0186 64.3422C58.7852 64.2007 58.5555 64.0519 58.3289 63.8957C58.1031 63.7396 57.8811 63.5763 57.6629 63.4056L57.6628 63.4055C57.4447 63.2356 57.231 63.0576 57.0216 62.8736L57.0217 62.8734L57.0167 62.8697C56.2638 62.3113 55.4515 61.3665 54.8231 60.6121M60.5478 65.1226L54.8231 60.6121M61.4358 65.4642L61.4133 65.536L61.4356 65.4641C61.4357 65.4642 61.4357 65.4642 61.4358 65.4642ZM61.4358 65.4642C62.9201 65.9257 64.3592 66.0328 65.8879 65.8194C70.3615 65.1957 73.2658 61.764 75.9269 57.9262C75.9258 57.9272 75.9247 57.9283 75.9236 57.9293L75.8915 57.9598C75.7496 58.0951 75.6052 58.2327 75.4531 58.3581C75.4531 58.3581 75.4531 58.3581 75.4531 58.3581L75.4052 58.3001C74.1897 59.3034 72.8613 59.9892 71.3917 60.3361L71.409 60.4093C68.285 61.1455 65.1735 60.3357 62.4432 58.5427L62.4845 58.4798L62.4432 58.5427C62.1125 58.3254 61.8019 58.0791 61.4934 57.8344C61.3303 57.7051 61.1677 57.5762 61.0031 57.4522L60.9922 57.4441L60.9931 57.4432C60.8017 57.2364 60.5948 57.0445 60.3843 56.8513L60.3424 56.8128C60.1462 56.6328 59.9478 56.4508 59.7606 56.2562M59.7606 56.2562L59.8148 56.204L59.7607 56.2562C59.7607 56.2562 59.7606 56.2562 59.7606 56.2562ZM59.7606 56.2562C59.1915 55.6661 58.6927 55.0074 58.1947 54.3497C58.1478 54.2876 58.1008 54.2256 58.0538 54.1637L58.0509 54.1599L58.051 54.1598C56.6912 52.1115 55.4558 49.9162 54.2525 47.7476M54.2525 47.7476L54.3182 47.7111M54.2525 47.7476C54.2525 47.7476 54.2525 47.7476 54.2525 47.7476L54.3182 47.7111M54.2525 47.7476C54.1508 47.5645 54.0491 47.3808 53.9472 47.1969C52.7926 45.112 51.615 42.9857 50.2258 41.1096C48.7145 39.0687 46.9564 37.3292 44.7124 36.266L44.7124 36.266C43.821 35.8433 42.9275 35.5198 41.9735 35.3702L41.9734 35.3702C39.0815 34.9145 36.2673 35.9225 33.9627 37.9393L33.9131 37.8827M54.3182 47.7111C54.2165 47.5278 54.1147 47.344 54.0127 47.1597C51.6024 42.8075 49.0795 38.2519 44.7446 36.198C43.8492 35.7734 42.9486 35.447 41.9851 35.2959C39.0672 34.8361 36.2313 35.854 33.9131 37.8827M33.9131 37.8827L33.9626 37.9393C31.8249 39.8098 30.5365 41.8352 29.2444 44.5204L29.2444 44.5204C29.1848 44.6442 29.1235 44.7689 29.0619 44.8943C28.8852 45.2538 28.7053 45.6196 28.5529 45.9898M33.9131 37.8827C31.7649 39.7624 30.4711 41.7976 29.1767 44.4878C29.1177 44.6103 29.0568 44.7341 28.9954 44.859C28.7799 45.2974 28.5577 45.7493 28.3866 46.2073C28.4419 46.1347 28.4974 46.0622 28.5529 45.9898M28.5529 45.9898C29.0322 45.3652 29.522 44.749 30.0606 44.1829L30.0606 44.1829C31.829 42.3267 34.1146 40.9486 36.5453 40.7516C39.2214 40.5343 41.7716 41.8692 43.7457 43.8345M28.5529 45.9898C28.5181 46.0743 28.4847 46.1591 28.4531 46.244C28.9836 45.5486 29.5195 44.8607 30.1151 44.2347C31.8752 42.3873 34.1447 41.0217 36.5514 40.8266C39.198 40.6117 41.7279 41.9318 43.6926 43.8878M43.7457 43.8345L57.6166 63.4648C57.3972 63.2939 57.1823 63.115 56.9719 62.9301C56.2105 62.3654 55.3927 61.4134 54.7653 60.6602M43.7457 43.8345C46.133 46.2105 47.8572 49.3271 49.5381 52.3653C49.7986 52.8363 50.0582 53.3055 50.319 53.7697L50.2534 53.8065M43.7457 43.8345L43.6926 43.8878M43.7457 43.8345C43.7457 43.8345 43.7457 43.8345 43.7457 43.8345L43.6926 43.8878M43.7457 43.8345L54.8231 60.6121M43.6926 43.8878C46.0717 46.2556 47.7902 49.3616 49.4716 52.4007C49.7323 52.8719 49.9921 53.3415 50.2534 53.8065M50.2534 53.8065C51.6017 56.207 53.0411 58.5891 54.7653 60.6602M50.2534 53.8065L50.319 53.7697C51.6668 56.1693 53.1035 58.5464 54.8231 60.6121M54.7653 60.6602L54.8231 60.6121M54.7653 60.6602L54.8231 60.6121C54.8231 60.6121 54.8231 60.6121 54.8231 60.6121" fill="white" stroke="url(#paint1_linear_677_4653)" stroke-width="0.15043"/>
<path d="M45.2361 26.1037L45.2361 26.1036C41.5373 26.3161 38.5508 28.3288 36.0994 31.4276C35.5709 32.0957 35.0915 32.8067 34.6098 33.5208C34.5541 33.6035 34.4983 33.6863 34.4423 33.769C34.7059 33.5464 34.9723 33.3261 35.2521 33.1228C37.5785 31.4323 40.0339 30.8072 42.7695 31.29C47.3036 32.0901 50.8031 35.9129 53.3934 39.9602C54.4763 41.6523 55.466 43.4297 56.4525 45.2012C56.8154 45.853 57.1778 46.5039 57.5444 47.1496L57.4789 47.1867L57.5444 47.1496C57.6856 47.3984 57.8257 47.6483 57.9657 47.8983C58.5818 48.9974 59.1981 50.0969 59.9119 51.1089C61.8636 53.8766 64.646 55.9986 67.7385 56.545C69.2897 56.819 70.8257 56.6415 72.342 56.1865C76.4858 54.8333 79.0262 50.953 81.0429 46.8164C81.0649 46.7713 81.087 46.7262 81.1092 46.681C81.2165 46.4619 81.3249 46.2406 81.4212 46.0154C81.1438 46.43 80.8544 46.8334 80.5329 47.2119L80.5326 47.2122C80.4287 47.3332 80.3228 47.4521 80.2142 47.5681L80.1593 47.5167M45.2361 26.1037L78.4081 49.054C78.5332 48.9652 78.657 48.8735 78.7789 48.7789C78.9008 48.6843 79.0214 48.5875 79.14 48.487M45.2361 26.1037L45.2395 26.1033M45.2361 26.1037L45.2395 26.1033M80.1593 47.5167L80.2144 47.5679C80.1059 47.6846 79.9961 47.7976 79.8838 47.909L79.8837 47.9091C79.7715 48.0197 79.6573 48.1289 79.5416 48.2345C79.4255 48.3407 79.3081 48.444 79.1886 48.5444C79.1886 48.5445 79.1885 48.5445 79.1884 48.5446L79.14 48.487M80.1593 47.5167C80.2671 47.4016 80.3723 47.2835 80.4755 47.1632L79.8309 47.8556M80.1593 47.5167C80.0515 47.6326 79.9425 47.7448 79.8309 47.8556M79.14 48.487C79.2587 48.3873 79.3754 48.2846 79.4909 48.179C79.6057 48.0741 79.7193 47.9656 79.8309 47.8556M79.14 48.487L79.8309 47.8556M45.2395 26.1033C46.3876 25.9846 47.7872 26.2585 48.8961 26.6207C53.5976 28.1578 55.9227 32.0809 58.5532 36.5194L58.5538 36.5205C58.5539 36.5205 58.5539 36.5205 58.5539 36.5206C59.8127 38.6773 61.0953 40.8149 62.4009 42.9349L62.4011 42.9353M45.2395 26.1033L62.4011 42.9353M62.4011 42.9353C63.7599 45.1101 65.0358 47.0297 66.9391 48.6456L62.4011 42.9353Z" fill="white" stroke="url(#paint2_linear_677_4653)" stroke-width="0.15043"/>
<path d="M37.2206 45.0456C38.8301 45.0178 40.4398 45.5819 41.8593 46.8096C44.7706 49.3278 46.5637 53.9042 48.2941 57.8962C48.7155 58.8683 49.123 59.8528 49.5179 60.8468C49.7303 61.3819 49.939 61.92 50.144 62.4608C50.2494 62.7384 50.3534 63.0169 50.4566 63.2954C50.5373 63.5129 50.6202 63.9288 50.748 64.091C50.748 64.091 47.7983 59.9538 44.2508 56.1306C43.6988 55.536 42.3906 54.1485 40.582 52.5961C38.3902 50.7141 35.8507 49.3232 33.2091 50.2167C32.0268 50.6168 30.8905 51.4083 29.842 52.2754C29.6966 52.3959 28.167 53.5485 28.1948 53.804C28.1948 53.804 29.0132 51.8372 29.3638 51.0758C31.1176 47.274 34.1688 45.0977 37.2205 45.0466L37.2206 45.0456Z" fill="white"/>
</g>
<rect x="19.5738" y="10.5738" width="70.8524" height="70.8524" rx="19.4262" stroke="white" stroke-opacity="0.32" stroke-width="1.14763"/>
</g>
<defs>
<filter id="filter0_d_677_4653" x="0.63797" y="0.818985" width="108.724" height="108.724" filterUnits="userSpaceOnUse" color-interpolation-filters="sRGB">
<feFlood flood-opacity="0" result="BackgroundImageFix"/>
<feColorMatrix in="SourceAlpha" type="matrix" values="0 0 0 0 0 0 0 0 0 0 0 0 0 0 0 0 0 0 127 0" result="hardAlpha"/>
<feOffset dy="9.18102"/>
<feGaussianBlur stdDeviation="9.18102"/>
<feComposite in2="hardAlpha" operator="out"/>
<feColorMatrix type="matrix" values="0 0 0 0 0.309804 0 0 0 0 0.27451 0 0 0 0 0.898039 0 0 0 0.1 0"/>
<feBlend mode="normal" in2="BackgroundImageFix" result="effect1_dropShadow_677_4653"/>
<feBlend mode="normal" in="SourceGraphic" in2="effect1_dropShadow_677_4653" result="shape"/>
</filter>
<linearGradient id="paint0_linear_677_4653" x1="70.4909" y1="29.7144" x2="70.4909" y2="46.9863" gradientUnits="userSpaceOnUse">
<stop stop-color="white"/>
<stop offset="1" stop-color="white" stop-opacity="0"/>
</linearGradient>
<linearGradient id="paint1_linear_677_4653" x1="52.323" y1="35.1868" x2="52.323" y2="65.9999" gradientUnits="userSpaceOnUse">
<stop stop-color="white"/>
<stop offset="1" stop-color="white" stop-opacity="0"/>
</linearGradient>
<linearGradient id="paint2_linear_677_4653" x1="57.8895" y1="26" x2="57.8895" y2="56.7503" gradientUnits="userSpaceOnUse">
<stop stop-color="white"/>
<stop offset="1" stop-color="white" stop-opacity="0"/>
</linearGradient>
<clipPath id="clip0_677_4653">
<rect x="19" y="10" width="72" height="72" rx="20" fill="white"/>
</clipPath>
</defs>
</svg>
