<svg width="178" height="54" viewBox="0 0 178 54" fill="none" xmlns="http://www.w3.org/2000/svg">
<rect x="1.23999" y="1" width="175.76" height="52" rx="26" fill="url(#paint0_linear_677_4395)"/>
<rect x="0.73999" y="0.5" width="176.76" height="53" rx="26.5" stroke="white" stroke-opacity="0.32"/>
<path d="M57.9599 34V20H60.2399L67.0999 30.26V20H69.3799V34H67.0999L60.2399 23.76V34H57.9599ZM76.2261 34.24C75.2261 34.24 74.3528 34.02 73.6061 33.58C72.8595 33.1267 72.2728 32.5133 71.8461 31.74C71.4328 30.9533 71.2261 30.0533 71.2261 29.04C71.2261 27.9867 71.4328 27.0733 71.8461 26.3C72.2728 25.5267 72.8595 24.9267 73.6061 24.5C74.3661 24.06 75.2461 23.84 76.2461 23.84C77.2195 23.84 78.0661 24.0533 78.7861 24.48C79.5061 24.8933 80.0728 25.4667 80.4861 26.2C80.8995 26.9333 81.1061 27.7667 81.1061 28.7C81.1061 28.8867 81.0995 29.0533 81.0861 29.2C81.0861 29.3467 81.0728 29.5067 81.0461 29.68H73.5061C73.5461 30.2 73.6795 30.6667 73.9061 31.08C74.1328 31.48 74.4395 31.7933 74.8261 32.02C75.2261 32.2467 75.6795 32.36 76.1861 32.36C76.7328 32.36 77.1928 32.24 77.5661 32C77.9528 31.76 78.2528 31.4133 78.4661 30.96H80.8461C80.6595 31.56 80.3595 32.1067 79.9461 32.6C79.5461 33.0933 79.0328 33.4933 78.4061 33.8C77.7928 34.0933 77.0661 34.24 76.2261 34.24ZM73.5261 28.1H78.7861C78.7728 27.3667 78.5128 26.7867 78.0061 26.36C77.4995 25.9333 76.8928 25.72 76.1861 25.72C75.5461 25.72 74.9661 25.9133 74.4461 26.3C73.9395 26.6867 73.6328 27.2867 73.5261 28.1ZM84.3478 34L81.4078 24.08H83.6878L85.5678 31.7L87.6278 24.08H90.0678L92.0878 31.68L93.9678 24.08H96.1678L93.2478 33.98H90.8478L88.8078 26.64L86.7678 34H84.3478ZM106.792 34.24C105.819 34.24 104.959 34.02 104.212 33.58C103.465 33.14 102.879 32.5333 102.452 31.76C102.025 30.9733 101.812 30.0667 101.812 29.04C101.812 28.0267 102.019 27.1333 102.432 26.36C102.845 25.5733 103.425 24.96 104.172 24.52C104.919 24.0667 105.792 23.84 106.792 23.84C107.992 23.84 108.999 24.1467 109.812 24.76C110.639 25.36 111.185 26.22 111.452 27.34H109.052C108.932 26.8733 108.672 26.4933 108.272 26.2C107.872 25.9067 107.372 25.76 106.772 25.76C106.172 25.76 105.679 25.9133 105.292 26.22C104.905 26.5133 104.612 26.9133 104.412 27.42C104.225 27.9133 104.132 28.4533 104.132 29.04C104.132 29.6533 104.232 30.2067 104.432 30.7C104.632 31.1933 104.925 31.5867 105.312 31.88C105.712 32.1733 106.199 32.32 106.772 32.32C107.359 32.32 107.845 32.1867 108.232 31.92C108.632 31.64 108.905 31.2467 109.052 30.74H111.452C111.292 31.46 110.992 32.0867 110.552 32.62C110.125 33.14 109.592 33.54 108.952 33.82C108.312 34.1 107.592 34.24 106.792 34.24ZM113.227 34V20H115.487V25.42C115.82 24.9 116.28 24.5067 116.867 24.24C117.467 23.9733 118.08 23.84 118.707 23.84C119.853 23.84 120.787 24.2067 121.507 24.94C122.227 25.6733 122.587 26.7533 122.587 28.18V34H120.347V28.46C120.347 27.62 120.147 26.96 119.747 26.48C119.36 26 118.787 25.76 118.027 25.76C117.24 25.76 116.62 26.02 116.167 26.54C115.713 27.0467 115.487 27.74 115.487 28.62V34H113.227ZM127.655 34.24C127.042 34.24 126.469 34.1267 125.935 33.9C125.415 33.66 124.995 33.3133 124.675 32.86C124.369 32.4067 124.215 31.8667 124.215 31.24C124.215 30.4933 124.402 29.8867 124.775 29.42C125.149 28.9533 125.655 28.6133 126.295 28.4C126.935 28.1733 127.642 28.06 128.415 28.06H130.895C130.895 27.5267 130.809 27.0933 130.635 26.76C130.462 26.4133 130.222 26.16 129.915 26C129.609 25.8267 129.249 25.74 128.835 25.74C128.302 25.74 127.835 25.86 127.435 26.1C127.035 26.34 126.789 26.7333 126.695 27.28H124.415C124.482 26.56 124.722 25.9467 125.135 25.44C125.562 24.92 126.102 24.5267 126.755 24.26C127.409 23.98 128.109 23.84 128.855 23.84C129.815 23.84 130.609 24.02 131.235 24.38C131.875 24.7267 132.355 25.2133 132.675 25.84C133.009 26.4667 133.175 27.1933 133.175 28.02V31.04C133.189 31.4 133.275 31.66 133.435 31.82C133.609 31.98 133.875 32.0667 134.235 32.08V34C133.675 34 133.195 33.94 132.795 33.82C132.395 33.7 132.062 33.52 131.795 33.28C131.542 33.04 131.335 32.7267 131.175 32.34C130.855 32.8733 130.382 33.3267 129.755 33.7C129.142 34.06 128.442 34.24 127.655 34.24ZM128.235 32.4C128.755 32.4 129.209 32.28 129.595 32.04C129.995 31.7867 130.309 31.4533 130.535 31.04C130.775 30.6133 130.895 30.1467 130.895 29.64V29.58H128.575C128.229 29.58 127.895 29.6267 127.575 29.72C127.255 29.8133 127.002 29.9667 126.815 30.18C126.629 30.38 126.535 30.66 126.535 31.02C126.535 31.5 126.702 31.8533 127.035 32.08C127.369 32.2933 127.769 32.4 128.235 32.4ZM139.197 34C138.184 34 137.41 33.7533 136.877 33.26C136.344 32.7667 136.077 31.98 136.077 30.9V25.98H134.657V24.08H136.077V21.68H138.357V24.08H140.777V25.98H138.357V30.92C138.357 31.3733 138.464 31.6867 138.677 31.86C138.89 32.02 139.21 32.1 139.637 32.1H140.777V34H139.197Z" fill="white"/>
<path d="M27.1199 27H42.1199" stroke="white" stroke-width="2.22222" stroke-linecap="round" stroke-linejoin="round"/>
<path d="M34.6199 34.5V19.5" stroke="white" stroke-width="2.22222" stroke-linecap="round" stroke-linejoin="round"/>
<defs>
<linearGradient id="paint0_linear_677_4395" x1="52.3054" y1="14.52" x2="216.007" y2="51.3065" gradientUnits="userSpaceOnUse">
<stop stop-color="#1421D5"/>
<stop offset="1" stop-color="#B8A0F7"/>
</linearGradient>
</defs>
</svg>
