<svg width="33" height="33" viewBox="0 0 33 33" fill="none" xmlns="http://www.w3.org/2000/svg">
<path d="M19.4085 29.7711C17.8352 29.7711 15.6085 28.6645 13.8485 23.3711L12.8885 20.4911L10.0085 19.5311C4.72849 17.7711 3.62183 15.5445 3.62183 13.9711C3.62183 12.4111 4.72849 10.1711 10.0085 8.39779L21.3285 4.62446C24.1552 3.67779 26.5152 3.95779 27.9685 5.39779C29.4218 6.83779 29.7018 9.21113 28.7552 12.0378L24.9818 23.3578C23.2085 28.6645 20.9818 29.7711 19.4085 29.7711ZM10.6352 10.3045C6.92849 11.5445 5.60849 13.0111 5.60849 13.9711C5.60849 14.9311 6.92849 16.3978 10.6352 17.6245L13.9952 18.7445C14.2885 18.8378 14.5285 19.0778 14.6218 19.3711L15.7418 22.7311C16.9685 26.4378 18.4485 27.7578 19.4085 27.7578C20.3685 27.7578 21.8352 26.4378 23.0752 22.7311L26.8485 11.4111C27.5285 9.35779 27.4085 7.67779 26.5418 6.81113C25.6752 5.94446 23.9952 5.83779 21.9552 6.51779L10.6352 10.3045Z" fill="white"/>
<path d="M13.9286 20.1311C13.6752 20.1311 13.4219 20.0378 13.2219 19.8378C12.8352 19.4511 12.8352 18.8111 13.2219 18.4244L17.9952 13.6378C18.3819 13.2511 19.0219 13.2511 19.4086 13.6378C19.7952 14.0244 19.7952 14.6644 19.4086 15.0511L14.6352 19.8378C14.4486 20.0378 14.1819 20.1311 13.9286 20.1311Z" fill="white"/>
</svg>
