<svg width="38" height="38" viewBox="0 0 38 38" fill="none" xmlns="http://www.w3.org/2000/svg">
<circle cx="18.6289" cy="18.6289" r="18.6289" fill="url(#paint0_linear_677_4665)"/>
<path d="M17.649 9.07886C12.7611 9.07886 8.77808 13.0619 8.77808 17.9498C8.77808 22.8376 12.7611 26.8207 17.649 26.8207C22.5369 26.8207 26.5199 22.8376 26.5199 17.9498C26.5199 13.0619 22.5369 9.07886 17.649 9.07886ZM21.8893 15.9095L16.8595 20.9393C16.7353 21.0635 16.5667 21.1344 16.3893 21.1344C16.2119 21.1344 16.0433 21.0635 15.9192 20.9393L13.4087 18.4288C13.1514 18.1715 13.1514 17.7457 13.4087 17.4885C13.6659 17.2312 14.0917 17.2312 14.349 17.4885L16.3893 19.5288L20.949 14.9691C21.2062 14.7119 21.632 14.7119 21.8893 14.9691C22.1465 15.2264 22.1465 15.6433 21.8893 15.9095Z" fill="white"/>
<defs>
<linearGradient id="paint0_linear_677_4665" x1="5" y1="-0.484375" x2="24" y2="32.0156" gradientUnits="userSpaceOnUse">
<stop offset="0.0197385" stop-color="#1421D5"/>
<stop offset="1" stop-color="#8579EC"/>
</linearGradient>
</defs>
</svg>
