<svg width="24" height="24" viewBox="0 0 42 42" fill="none" xmlns="http://www.w3.org/2000/svg">
<g id="vuesax/bold/tick-circle">
<g id="tick-circle">
<path id="Vector" d="M20.8589 3.89062C11.377 3.89062 3.65039 11.6173 3.65039 21.0992C3.65039 30.5811 11.377 38.3077 20.8589 38.3077C30.3408 38.3077 38.0675 30.5811 38.0675 21.0992C38.0675 11.6173 30.3408 3.89062 20.8589 3.89062ZM29.0846 17.1412L19.3274 26.8984C19.0864 27.1394 18.7595 27.277 18.4153 27.277C18.0711 27.277 17.7442 27.1394 17.5033 26.8984L12.6332 22.0284C12.1342 21.5294 12.1342 20.7034 12.6332 20.2043C13.1323 19.7053 13.9583 19.7053 14.4574 20.2043L18.4153 24.1623L27.2605 15.3171C27.7596 14.818 28.5856 14.818 29.0846 15.3171C29.5837 15.8161 29.5837 16.6249 29.0846 17.1412Z" fill="#41D195"/>
</g>
</g>
</svg>